# xmcd
#
# Track frame offsets:
#	150
#	12562
#	24057
#	34699
#	45112
#	55900
#	67010
#	80862
#	90902
#	105679
#	116772
#	128132
#	138910
#	154103
#	166993
#	178353
#	188755
#	197755
#	208452
#	218765
#
# Disc length: 3075 seconds
# Revision: 0
# Processed by: cddbd v1.5.2PL0 Copyright (c) Steve Scherf et al.
# Submitted via: dBpowerAMP V12.0
#
DISCID=170c0114
DTITLE=Patsy Cline - Patsy Cline - The Essential Recordings, Disc 1
DYEAR=2012
DGENRE=Country
TTITLE0=Crazy
TTITLE1=That Wonderful Someone
TTITLE2=San Antonio Rose
TTITLE3=Pick Me Up On Your Way Down
TTITLE4=Honky Tonk Merry Go Round
TTITLE5=South of the Border (Down Mexico Way)
TTITLE6=A Church, A Courtroom, and Then Goodbye
TTITLE7=Have You Ever Been Lonely (Have You Ever Been Blue)
TTITLE8=Then You'll Know
TTITLE9=There He Goes
TTITLE10=Don't Ever Leave Me Again
TTITLE11=I Can See An Angel
TTITLE12=The Wayward Wind
TTITLE13=Yes, I Understand
TTITLE14=Hungry For Love
TTITLE15=How Can I Face Tomorrow
TTITLE16=Try Again
TTITLE17=I Love You, Honey
TTITLE18=Who Can I Count On
TTITLE19=Today, Tomorrow and Forever
EXTD=
EXTT0=
EXTT1=
EXTT2=
EXTT3=
EXTT4=
EXTT5=
EXTT6=
EXTT7=
EXTT8=
EXTT9=
EXTT10=
EXTT11=
EXTT12=
EXTT13=
EXTT14=
EXTT15=
EXTT16=
EXTT17=
EXTT18=
EXTT19=
PLAYORDER=
